<?xml version="1.0" encoding="UTF-8" standalone="no"?>
<svg
   xmlns:dc="http://purl.org/dc/elements/1.1/"
   xmlns:cc="http://creativecommons.org/ns#"
   xmlns:rdf="http://www.w3.org/1999/02/22-rdf-syntax-ns#"
   xmlns:svg="http://www.w3.org/2000/svg"
   xmlns="http://www.w3.org/2000/svg"
   xmlns:sodipodi="http://sodipodi.sourceforge.net/DTD/sodipodi-0.dtd"
   xmlns:inkscape="http://www.inkscape.org/namespaces/inkscape"
   version="1.1"
   id="Layer_1"
   x="0px"
   y="0px"
   height="48"
   width="48"
   viewBox="0 0 1024 1024"
   enable-background="new 0 0 1024 1024"
   xml:space="preserve"
   sodipodi:docname="posted-coin-transparent.svg"
   inkscape:version="0.92.3 (2405546, 2018-03-11)"><metadata
   id="metadata337"><rdf:RDF><cc:Work
       rdf:about=""><dc:format>image/svg+xml</dc:format><dc:type
         rdf:resource="http://purl.org/dc/dcmitype/StillImage" /></cc:Work></rdf:RDF></metadata><defs
   id="defs335" /><sodipodi:namedview
   pagecolor="#ffffff"
   bordercolor="#666666"
   borderopacity="1"
   objecttolerance="10"
   gridtolerance="10"
   guidetolerance="10"
   inkscape:pageopacity="0"
   inkscape:pageshadow="2"
   inkscape:window-width="1918"
   inkscape:window-height="2054"
   id="namedview333"
   showgrid="false"
   inkscape:zoom="0.65186406"
   inkscape:cx="493.27443"
   inkscape:cy="107.23531"
   inkscape:window-x="-10"
   inkscape:window-y="0"
   inkscape:window-maximized="0"
   inkscape:current-layer="Layer_1" />

<path
   fill="#F2F2F2"
   opacity="1.000000"
   stroke="none"
   d=" M888.754822,685.702637   C876.532410,709.748962 862.194702,731.938660 845.791687,752.907532   C831.025452,771.783997 814.502502,788.990234 797.040405,805.227051   C773.431519,827.179565 747.493347,846.175659 719.323242,861.976013   C693.899597,876.235901 667.495361,888.398132 639.333984,896.093994   C620.953003,901.117126 602.323730,905.485718 583.567932,908.803894   C567.980591,911.561523 552.077332,912.813293 536.256714,913.889404   C522.034668,914.856750 507.712677,915.313904 493.475677,914.819214   C480.239075,914.359314 466.955322,912.973999 453.873932,910.868042   C434.630402,907.770081 415.345673,904.488220 396.443451,899.810181   C365.940125,892.261047 337.124756,880.059937 309.497101,865.078247   C288.296631,853.581848 267.988342,840.651245 249.696274,824.952332   C233.131470,810.735779 216.747147,796.185852 201.482651,780.607666   C181.187592,759.895630 163.941833,736.674194 148.912338,711.753174   C133.186020,685.676636 120.328194,658.343811 111.942612,629.139343   C106.682571,610.820129 102.780342,592.062561 99.221207,573.320862   C96.937187,561.293701 95.858490,548.966370 95.188316,536.721680   C94.318367,520.826904 93.795090,504.863312 94.252808,488.961853   C94.600426,476.885376 96.677841,464.855743 98.046890,452.812256   C101.006378,426.777832 107.436821,401.549530 116.070702,376.872253   C125.896629,348.787964 138.890198,322.255859 155.178223,297.309143   C167.404648,278.583191 180.964996,260.974518 196.004272,244.401566   C217.934402,220.235016 242.062531,198.692795 268.622314,179.704422   C303.188660,154.991898 340.549438,135.911316 381.217682,123.838043   C401.617859,117.781792 422.577881,113.487854 443.448853,109.194839   C453.347809,107.158684 463.611816,106.661095 473.745636,106.056908   C489.754944,105.102425 505.809753,103.869232 521.815735,104.197357   C537.529602,104.519478 553.230286,106.412376 568.894714,108.024239   C597.992676,111.018417 626.274475,117.903511 653.843384,127.481804   C690.697266,140.286026 725.156494,157.931412 756.545837,181.178650   C769.312073,190.633453 781.575867,200.817596 793.584229,211.228226   C802.858459,219.268478 811.682922,227.887360 820.174805,236.758682   C844.219849,261.878082 864.736694,289.615204 881.661377,320.061218   C899.283447,351.761780 911.639893,385.421783 919.706238,420.649506   C922.633484,433.433624 923.896729,446.594452 926.039062,459.563568   C929.754333,482.054596 929.450012,504.745300 928.844788,527.375000   C928.491394,540.588135 926.489563,553.768555 924.995728,566.937195   C922.584167,588.196228 918.250305,609.126160 911.138550,629.268311   C904.446533,648.221436 896.423401,666.704651 888.754822,685.702637  M905.159119,628.705017   C915.826355,597.557190 920.701965,565.305786 922.938049,532.625977   C923.690857,521.623779 923.467712,510.511047 922.987793,499.479370   C922.394775,485.846344 921.497681,472.195892 919.936462,458.644592   C918.467834,445.896515 916.750427,433.079285 913.764526,420.622772   C905.904846,387.833832 894.510498,356.351929 878.424683,326.525482   C860.578918,293.436035 838.259949,263.734100 812.174500,236.916031   C799.610229,223.998901 785.735596,212.309174 772.023010,200.567307   C751.780701,183.234085 729.360413,168.994293 705.895203,156.483734   C682.913818,144.231079 658.757080,134.704422 633.799072,127.250015   C600.363220,117.263458 566.077148,112.022820 531.332703,110.208572   C516.292419,109.423210 501.111023,110.168053 486.056091,111.162224   C470.721161,112.174866 455.316437,113.527283 440.208344,116.222488   C421.628571,119.537033 403.079315,123.547836 384.957275,128.782333   C356.512543,136.998520 329.619202,149.126862 303.920929,163.953827   C272.390167,182.145920 243.908218,204.325348 218.005234,229.727432   C200.021912,247.363007 183.766830,266.577484 169.139496,287.197906   C149.893997,314.328674 134.573944,343.468384 123.107933,374.597473   C114.611008,397.665833 108.061493,421.322205 104.998466,445.810760   C103.273598,459.600891 101.206062,473.372101 100.177208,487.217560   C99.397980,497.703796 99.756508,508.302216 100.087906,518.835632   C100.419563,529.377197 100.847412,539.961182 102.129959,550.416626   C104.008713,565.732239 106.037468,581.084045 109.157791,596.181580   C115.798836,628.313843 127.116829,658.874451 142.245926,687.997192   C161.814972,725.666504 187.168411,759.125061 217.482727,788.672119   C231.158890,802.002136 245.958115,814.262024 260.891754,826.202026   C288.428589,848.218750 319.000702,865.365295 351.560516,878.645874   C378.059784,889.454407 405.422760,897.901672 433.888977,901.949097   C452.613342,904.611206 471.371613,907.801880 490.211975,908.688660   C514.142212,909.815125 538.223389,909.882324 562.037292,905.971069   C579.494751,903.103760 597.098938,900.803650 614.312134,896.837769   C658.584534,886.637451 699.730042,868.761902 737.692932,843.779358   C768.074768,823.785828 796.084106,800.902466 820.050842,773.417114   C831.619141,760.150391 843.379333,746.918396 853.583557,732.622070   C876.128418,701.036316 893.718384,666.786255 905.159119,628.705017  z"
   id="path4" />

<path
   fill="#F2F2F2"
   opacity="1.000000"
   stroke="none"
   d=" M334.702209,156.755814   C364.394470,142.643677 394.787445,131.698730 426.861786,126.065109   C443.214539,123.192863 459.704193,120.989914 476.201782,119.091263   C487.155151,117.830673 498.224060,117.335258 509.255646,117.044319   C529.733826,116.504227 550.070129,118.335609 570.398376,120.871696   C598.005554,124.315865 624.905518,130.558258 651.157593,139.634583   C687.153564,152.079773 720.758362,169.289383 751.317200,192.014908   C765.535217,202.588348 779.053955,214.173767 792.289429,225.973724   C802.434204,235.018234 812.109619,244.697739 821.155090,254.842606   C836.804932,272.394440 850.892822,291.148712 863.173279,311.309998   C879.382996,337.922150 892.672180,365.824829 901.148682,395.778168   C905.988098,412.879028 909.661133,430.363007 912.859314,447.857269   C915.117126,460.207520 916.124756,472.838013 916.907776,485.392212   C917.753662,498.955475 918.324646,512.598450 917.836487,526.164185   C917.383667,538.749634 915.378052,551.279419 914.052002,563.833252   C911.197754,590.854675 904.129578,616.863525 895.008301,642.356628   C886.312134,666.661377 874.901428,689.651794 861.083679,711.455139   C848.178833,731.818298 833.444214,750.708984 817.184021,768.548401   C796.530884,791.207458 774.087830,811.795593 748.695007,828.885254   C732.023315,840.105591 714.817078,850.703369 697.077881,860.125793   C670.551208,874.215942 642.196533,884.050293 612.957947,890.784485   C596.709412,894.526855 580.019653,896.355957 563.525879,899.029968   C539.873474,902.864502 515.976990,902.890259 492.222046,901.755066   C466.979279,900.548828 441.963593,896.906921 417.177429,891.241150   C381.777863,883.149414 348.330750,870.365356 316.550110,853.044373   C293.644409,840.560303 272.051239,826.061951 252.440689,808.814453   C239.900284,797.785156 227.156631,786.866333 215.658310,774.798340   C192.948181,750.962891 173.173492,724.839600 156.963913,696.019348   C139.077682,664.217957 126.280937,630.525146 118.308540,595.038147   C115.354492,581.888916 113.503098,568.416992 112.202751,554.990234   C110.584206,538.277893 109.166092,521.452148 109.313667,504.689880   C109.454865,488.651764 110.885796,472.508545 113.258408,456.637054   C115.989426,438.368103 119.584496,420.141388 124.221245,402.263824   C131.886139,372.710846 144.326752,345.069427 159.668259,318.613129   C171.442810,298.307983 184.996674,279.346893 200.165909,261.575958   C215.779587,243.284363 232.959061,226.498917 251.421356,210.996170   C276.904755,189.597809 304.397766,171.399261 334.702209,156.755814  M823.051025,753.487793   C830.090698,744.454956 837.384460,735.607117 844.121765,726.354065   C863.417358,699.853394 878.628052,671.066711 889.828552,640.319641   C897.801147,618.433716 904.077759,595.972839 907.046082,572.751587   C908.805359,558.988281 910.875854,545.238647 911.898621,531.415710   C912.686035,520.773499 912.188721,510.024506 912.019165,499.326843   C911.877502,490.386627 912.077393,481.358765 910.892334,472.535370   C908.773987,456.762329 905.986877,441.064453 903.007324,425.425079   C898.275391,400.587006 889.864380,376.890167 879.469971,353.907745   C863.424377,318.430481 842.086487,286.287964 815.888794,257.610779   C795.377075,235.157898 773.124939,214.426712 748.254272,196.672516   C714.399536,172.504974 677.805786,153.873825 638.121033,141.337814   C605.361145,130.989304 571.714722,124.907928 537.521179,123.334053   C515.743164,122.331635 493.775574,123.663071 471.987885,125.250481   C456.137848,126.405289 440.321442,129.074310 424.705139,132.157623   C395.445831,137.934647 367.369324,147.657150 340.391083,160.321472   C303.878784,177.461334 270.956696,200.144562 241.344330,227.400803   C221.381042,245.775681 202.933441,265.667786 186.814346,287.641357   C163.437485,319.508698 145.377243,354.080048 133.088455,391.631622   C122.817398,423.017517 116.857384,455.345490 115.316727,488.227661   C114.390289,508.000458 115.781319,527.949097 117.204254,547.741577   C118.181419,561.333435 120.642670,574.857971 123.076103,588.297485   C127.930023,615.105103 136.666626,640.705078 147.902344,665.506958   C163.948105,700.926697 185.290009,732.910461 211.347824,761.602356   C232.814163,785.238708 256.389038,806.700684 282.614990,825.111389   C310.902618,844.969543 341.214661,861.085327 373.695557,872.727722   C401.893127,882.834778 430.898376,890.221375 460.869537,892.937012   C478.214935,894.508667 495.589600,895.810303 512.973022,896.875671   C518.210754,897.196594 523.523987,896.342590 528.799377,895.980286   C538.159424,895.337463 547.594116,895.201111 556.859131,893.880920   C575.179199,891.270325 593.558960,888.717224 611.637329,884.847351   C649.247864,876.796265 684.420044,862.077698 717.538452,842.717102   C748.399597,824.676270 776.070618,802.336609 801.349182,777.093506   C808.736511,769.716492 815.505554,761.720215 823.051025,753.487793  z"
   id="path8" />

<path
   fill="#FFFFFF"
   opacity="1.000000"
   stroke="none"
   d=" M404.061493,741.129150   C389.040588,745.921814 370.684418,735.827576 367.109955,720.653687   C366.366638,717.498352 366.045654,714.171997 366.043671,710.924133   C365.988342,620.829773 365.774811,530.734619 366.106018,440.641510   C366.245636,402.660339 377.709778,368.261963 401.352081,338.084076   C421.728302,312.075165 447.688721,294.320618 479.075714,284.582245   C492.807739,280.321716 506.943420,277.675079 521.480408,277.971924   C529.278320,278.131165 537.081909,278.011017 544.924927,278.319885   C545.380432,279.596039 545.622192,281.283661 546.234497,281.431000   C551.791077,282.768066 557.412292,283.836182 563.412231,284.986389   C564.870239,284.998169 565.930664,285.006531 567.135620,285.302704   C568.195190,286.048309 569.110168,286.506104 570.428345,286.971313   C572.900024,287.489624 575.011902,287.869293 577.029053,288.535736   C583.372620,290.631683 589.680664,292.835358 596.240601,295.015656   C596.478821,295.033997 596.956238,295.052673 597.026123,295.394897   C598.732605,296.488495 600.369263,297.239899 602.244934,298.006653   C602.484009,298.022003 602.962646,298.042755 603.016968,298.359070   C603.723633,299.105896 604.375977,299.536407 605.344543,300.124695   C607.968262,301.546509 610.308044,302.755371 612.576599,304.085876   C617.690125,307.084961 622.768250,310.144287 628.027161,313.460968   C629.377319,314.558441 630.561035,315.373993 631.830444,316.492065   C632.606384,317.539001 633.296692,318.283447 634.272827,319.193481   C640.608154,326.234070 646.652893,333.113281 652.709045,339.982452   C655.723145,343.401093 658.758118,346.801331 661.841370,350.502563   C661.984131,351.185913 662.069092,351.576569 662.151733,352.284485   C662.750122,353.087891 663.350830,353.574066 663.961243,354.054810   C663.970947,354.049438 663.934814,354.061279 663.948120,354.420837   C664.958679,356.212982 665.955994,357.645538 666.979858,359.303589   C667.006348,359.529114 667.131165,359.965698 667.138855,360.324371   C668.740356,363.164612 670.334167,365.646179 671.949280,368.433441   C672.045288,369.140656 672.119995,369.542206 672.175171,370.261566   C672.730591,371.110352 673.305542,371.641327 673.940613,372.528870   C679.809998,385.704132 683.652466,399.107056 685.711060,413.163147   C685.923340,413.998077 686.336304,414.650208 686.761597,415.707520   C686.833252,417.738342 686.892456,419.363922 686.742188,421.146606   C686.707764,421.864471 686.882751,422.425232 687.080566,423.391693   C687.382141,426.859833 687.660950,429.922302 687.670532,433.298523   C687.580566,439.746948 687.759827,445.881592 687.927002,452.454895   C687.622864,456.265350 687.330811,459.637146 686.815063,463.147278   C686.706848,463.861755 686.822388,464.437927 686.915466,465.379700   C686.629639,467.171692 686.366394,468.598114 685.871216,470.152161   C685.745728,470.856262 685.852234,471.432739 685.912354,472.351501   C685.618713,473.805847 685.371521,474.917938 684.887939,476.153137   C684.757324,476.853119 684.863098,477.430054 684.902954,478.400238   C681.182312,490.802094 677.527588,502.810730 673.572388,514.919434   C672.917786,515.699280 672.563721,516.379028 672.131165,517.414062   C670.998535,520.126221 669.944397,522.483032 668.586670,524.932556   C667.907410,525.699280 667.531616,526.373352 667.062012,527.370605   C666.279236,529.080383 665.590454,530.466980 664.596130,531.941284   C663.897583,532.698181 663.504517,533.367371 663.059753,534.253967   C663.008057,534.471375 662.946594,534.914062 662.634460,534.983154   C661.924744,535.715271 661.527161,536.378357 661.078491,537.263306   C661.027405,537.485168 660.960999,537.935547 660.646973,537.998596   C659.933472,538.722046 659.533997,539.382446 658.962524,540.330017   C658.478638,541.439209 658.166687,542.261230 657.849365,543.203613   C657.843872,543.323975 657.924316,543.551086 657.671753,543.744019   C656.876831,544.562256 656.334473,545.187561 655.582703,545.971313   C655.197632,546.601379 655.021912,547.072998 654.575623,547.757690   C652.819885,549.629639 651.334839,551.288513 649.583496,553.140991   C638.966003,565.348694 627.084839,575.498657 612.723267,583.080994   C603.575989,587.065247 594.791748,591.037048 585.658325,595.008423   C584.203552,595.666138 583.097961,596.324280 581.610718,596.994568   C578.819092,597.670288 576.409058,598.333923 573.770874,598.740723   C568.429993,599.360962 563.297913,600.144043 558.219727,601.189148   C557.109497,601.417603 556.191650,602.580872 555.185181,603.313660   C555.830017,603.889771 556.474792,604.465820 557.119629,605.041870   C556.608032,605.357117 556.103577,605.935486 555.583862,605.949524   C534.677063,606.516846 513.875488,606.100647 493.826904,599.007141   C474.418671,592.140198 456.696014,582.406799 441.682709,568.142639   C436.903625,563.602112 432.347626,558.826599 427.484863,554.031616   C427.280182,553.904541 427.096008,553.580139 427.046875,553.235840   C425.787140,552.410156 424.576477,551.928772 423.365845,551.447449   C423.219666,552.626831 423.073456,553.806213 422.936951,555.454956   C422.944641,606.313110 422.986298,656.701843 422.891968,707.090454   C422.878357,714.361084 422.163025,721.619080 417.636597,728.021851   C416.901947,728.744873 416.489838,729.419373 415.936676,730.365967   C415.163544,731.405151 414.531464,732.172363 413.537292,732.953369   C410.412292,734.335754 407.502289,735.486755 404.971466,737.198364   C404.155273,737.750244 404.336517,739.777039 404.061493,741.129150  M435.004059,500.008057   C435.004059,500.008057 434.959930,500.022736 434.970154,500.748810   C435.962677,502.191895 436.955200,503.635010 438.006287,505.525574   C438.006287,505.525574 438.134888,505.958191 438.137238,506.667419   C440.400391,509.471710 442.663544,512.276001 445.006439,515.517517   C445.006439,515.517517 445.147461,515.939026 445.151398,516.627686   C451.990570,526.131714 461.036499,533.091003 471.096680,539.701904   C472.061005,540.140564 473.025330,540.579224 474.340393,541.488220   C474.890778,541.661255 475.441162,541.834290 476.100800,542.711609   C482.916931,546.737793 489.866394,550.413513 498.145630,551.777771   C503.944275,552.846191 509.728302,554.018372 515.561462,554.842529   C516.237854,554.938049 517.186890,553.103516 518.935791,552.020142   C528.180176,551.675293 537.576660,552.272827 546.640442,550.809509   C574.230347,546.355042 596.264404,532.040771 612.595093,509.666321   C632.228027,482.767365 637.017761,451.911285 631.688721,419.882385   C627.011719,391.771576 613.051331,368.294006 589.653137,351.122772   C573.091858,338.969025 554.604309,332.356964 533.983582,332.005219   C528.659668,331.914429 523.334595,331.894409 517.985229,331.087219   C517.120972,330.107452 516.087402,328.177704 515.418884,328.296783   C509.572998,329.338165 503.792328,330.745697 497.349121,332.051025   C496.920380,332.056702 496.491608,332.062408 495.349121,332.084747   C493.898407,332.734772 492.447693,333.384796 490.280762,334.114990   C484.855377,337.084839 479.430023,340.054688 473.340149,343.124176   C471.895081,344.085785 470.450012,345.047394 468.279938,346.011078   C467.178528,346.999390 466.077118,347.987701 465.000000,349.000000   C465.000000,349.000000 464.973724,348.974976 464.255859,348.987976   C463.158447,349.981934 462.061066,350.975891 460.722321,352.478668   C460.390747,352.938049 460.059204,353.397461 458.999969,353.892181   C457.333313,355.261444 455.666656,356.630707 453.690765,358.553558   C452.462891,359.705505 451.235016,360.857483 449.325745,362.070831   C448.571930,363.061371 447.818146,364.051910 446.883057,365.695312   C443.146729,371.718567 439.410370,377.741791 435.126831,384.175751   C433.367828,387.716888 431.608826,391.258057 429.252960,395.010956   C428.911896,395.696564 428.570801,396.382141 428.090393,397.800964   C427.679138,399.469727 427.267883,401.138489 426.259552,403.017822   C425.953979,403.707428 425.648407,404.397034 425.174896,405.878998   C425.040283,407.493378 424.905670,409.107727 424.195129,410.978241   C423.902802,411.679382 423.610474,412.380554 423.190430,413.725128   C423.175110,414.161224 423.159790,414.597351 422.664825,415.272980   C422.759033,415.852264 422.853241,416.431580 422.903473,417.748596   C422.847168,418.731873 422.790863,419.715118 422.178192,420.974640   C422.084839,421.990906 421.991486,423.007202 421.863708,424.752655   C421.610931,426.177063 421.358124,427.601501 420.570496,429.419525   C420.695404,430.617218 420.820343,431.814880 420.915161,433.946442   C420.921509,439.626221 420.927887,445.305969 420.458313,451.441315   C420.669220,452.619751 420.880127,453.798187 421.056580,455.707581   C421.326935,457.129150 421.597290,458.550690 421.434143,460.410400   C421.875031,461.368683 422.315887,462.326996 422.781403,464.026642   C422.837036,465.014160 422.892670,466.001709 422.531616,467.340240   C422.951538,467.978973 423.371429,468.617737 423.833344,470.067963   C423.987793,471.685181 424.142242,473.302399 424.197754,475.547485   C424.733032,476.114471 425.268341,476.681458 425.865753,478.003723   C426.664185,480.977478 427.462646,483.951233 428.184052,487.557617   C428.748169,488.095490 429.312256,488.633362 429.997803,489.882477   C431.041046,492.573212 432.084290,495.263947 433.156769,498.591431   C433.760406,499.073944 434.364014,499.556458 435.004059,500.008057  z"
   id="path12" />
<path
   fill="#C0C0C0"
   opacity="1.000000"
   stroke="none"
   d=" M685.124329,476.030060   C685.371521,474.917938 685.618713,473.805847 686.142212,472.217194   C686.313416,471.168610 686.208313,470.596558 686.103149,470.024536   C686.366394,468.598114 686.629639,467.171692 687.150208,465.242798   C687.284607,464.163177 687.161682,463.586060 687.038818,463.008942   C687.330811,459.637146 687.622864,456.265350 688.234741,452.166443   C688.349670,445.287781 688.144714,439.136292 687.939758,432.984772   C687.660950,429.922302 687.382141,426.859833 687.299194,423.240356   C687.313965,422.118744 687.132812,421.554138 686.951660,420.989532   C686.892456,419.363922 686.833252,417.738342 686.822571,415.367737   C686.551270,414.075256 686.231445,413.527802 685.911621,412.980347   C683.652466,399.107056 679.809998,385.704132 673.952148,372.200653   C673.334045,370.991791 672.764343,370.467773 672.194702,369.943756   C672.119995,369.542206 672.045288,369.140656 671.944092,368.058533   C672.469055,365.247986 667.374512,363.134003 671.899536,360.992798   C672.224060,361.416779 672.548523,361.840790 673.031738,362.782837   C673.450195,363.532318 673.709900,363.763763 673.969604,363.995209   C673.969604,363.995209 674.092468,364.353912 674.143982,364.812012   C674.452148,365.511597 674.708740,365.753082 674.965332,365.994568   C674.965332,365.994598 675.087097,366.356934 675.141113,366.816223   C675.452942,367.515411 675.710693,367.755280 675.968506,367.995148   C675.968506,367.995148 676.091553,368.357880 676.065247,368.873016   C676.335205,369.921143 676.631470,370.454132 676.927734,370.987122   C680.292480,380.339050 683.657288,389.690948 686.984009,399.788696   C687.264587,401.343719 687.583313,402.152863 687.902039,402.962036   C687.902039,402.962036 688.068726,403.362244 688.001343,403.953735   C688.254272,405.683380 688.574585,406.821564 688.894897,407.959747   C688.894897,407.959747 689.064636,408.362091 688.997925,408.973694   C689.250244,411.042572 689.569214,412.499878 689.888184,413.957184   C689.888184,413.957184 690.061768,414.360596 689.994507,415.003296   C690.244202,417.748413 690.561157,419.850861 690.878113,421.953308   C690.878113,421.953308 691.058105,422.358032 690.988770,423.057495   C690.961609,436.569580 691.003723,449.382141 691.045776,462.194733   C691.045837,462.194733 691.053040,462.645050 690.689941,463.136902   C690.232422,465.815002 690.137939,468.001251 690.043396,470.187500   C689.126465,482.940430 685.315491,494.976837 681.036194,506.910767   C676.466980,519.652954 669.868835,531.296936 661.613281,542.673096   C659.997925,543.020996 658.926392,543.052124 657.854797,543.083252   C658.166687,542.261230 658.478638,541.439209 659.271729,540.271973   C660.155579,539.263062 660.558289,538.599304 660.960999,537.935547   C660.960999,537.935547 661.027405,537.485168 661.389282,537.204224   C662.149658,536.253540 662.548096,535.583801 662.946594,534.914062   C662.946594,534.914062 663.008057,534.471375 663.376099,534.194519   C664.130005,533.229614 664.515808,532.541565 664.901611,531.853577   C665.590454,530.466980 666.279236,529.080383 667.373413,527.304321   C668.149170,526.223206 668.519714,525.531494 668.890198,524.839844   C669.944397,522.483032 670.998535,520.126221 672.436890,517.341187   C673.171692,516.215149 673.522278,515.517212 673.872864,514.819336   C677.527588,502.810730 681.182312,490.802094 685.130249,478.265747   C685.323730,477.168671 685.224060,476.599365 685.124329,476.030060  z"
   id="path14" />
<path
   fill="#BFBFBF"
   opacity="1.000000"
   stroke="none"
   d=" M417.959167,727.973328   C422.163025,721.619080 422.878357,714.361084 422.891968,707.090454   C422.986298,656.701843 422.944641,606.313110 423.281067,555.322754   C424.775665,554.340820 425.935852,553.960510 427.096008,553.580139   C427.096008,553.580139 427.280182,553.904541 427.144867,554.032959   C427.020874,554.887878 427.032196,555.614380 426.720886,556.856201   C426.297363,557.925354 426.196503,558.479187 426.070312,559.498901   C426.041382,613.026428 426.037781,666.088013 426.034180,719.149658   C424.877502,725.507996 421.206726,730.381775 416.129944,734.865540   C414.949402,734.258972 414.424408,733.599243 413.899384,732.939514   C414.531464,732.172363 415.163544,731.405151 416.251068,730.303833   C417.124054,729.304199 417.541595,728.638794 417.959167,727.973328  z"
   id="path16" />
<path
   fill="#D0D0D0"
   opacity="1.000000"
   stroke="none"
   d=" M613.086426,583.068604   C627.084839,575.498657 638.966003,565.348694 649.917480,553.279297   C651.418823,553.504883 652.319946,553.785950 653.221069,554.066956   C652.856567,554.534363 652.492065,555.001831 651.778992,555.861450   C651.306946,556.575378 651.183472,556.897217 651.060059,557.219055   C646.987427,561.421082 642.914795,565.623047 638.277344,570.002014   C637.483215,570.421814 637.253967,570.664673 637.024780,570.907532   C632.301331,574.541748 627.577881,578.175903 622.286011,581.997986   C621.483704,582.430542 621.249878,582.675171 621.015991,582.919861   C620.596313,583.248535 620.176697,583.577271 619.236633,584.045898   C618.482605,584.432007 618.248901,584.678101 618.015259,584.924255   C618.015259,584.924255 617.633118,585.074524 617.069702,585.029907   C615.366394,584.346436 614.226379,583.707520 613.086426,583.068604  z"
   id="path18" />
<path
   fill="#E7E7E7"
   opacity="1.000000"
   stroke="none"
   d=" M612.723267,583.080994   C614.226379,583.707520 615.366394,584.346436 616.864380,585.028076   C611.782104,588.059021 606.341736,591.047241 600.298340,594.116089   C599.369568,594.324402 599.143188,594.551208 599.016113,594.877136   C599.016113,594.877136 598.608215,595.033203 598.153442,595.114502   C597.370789,595.322937 597.143250,595.550354 597.016113,595.878174   C596.604797,595.931091 596.193542,595.984070 595.235107,596.116211   C594.364441,596.324951 594.140442,596.552551 594.016052,596.878174   C594.016052,596.878174 593.608948,597.033752 593.154297,597.114563   C592.371582,597.322205 592.143738,597.549561 592.016174,597.877319   C591.608215,597.933167 591.200256,597.989075 590.245239,598.120300   C589.371460,598.322815 589.144104,598.549683 589.016296,598.876221   C588.608154,598.932373 588.200073,598.988464 587.244995,599.120117   C586.371582,599.322815 586.144348,599.549500 586.016357,599.875732   C585.302185,599.929504 584.588074,599.983215 583.280396,600.115967   C582.363953,600.324768 582.140320,600.552307 582.016052,600.877441   C581.584167,600.934692 581.152283,600.992004 580.241821,600.850464   C579.178345,601.060242 578.593384,601.468872 578.008423,601.877441   C577.578186,601.934204 577.147949,601.990906 576.227173,601.814697   C575.157410,600.720398 574.578247,599.858948 573.999084,598.997559   C576.409058,598.333923 578.819092,597.670288 581.960083,596.997925   C583.796570,596.328979 584.902100,595.668945 586.007568,595.008911   C594.791748,591.037048 603.575989,587.065247 612.723267,583.080994  z"
   id="path20" />
<path
   fill="#F4F4F4"
   opacity="1.000000"
   stroke="none"
   d=" M426.422729,718.930908   C426.037781,666.088013 426.041382,613.026428 426.255432,559.489502   C426.465881,559.014160 426.838043,559.010681 426.838013,559.010681   C426.891693,592.950439 426.977051,626.890259 426.986725,660.830017   C426.992249,680.124084 426.873901,699.418152 426.422729,718.930908  z"
   id="path22" />
<path
   fill="#CCCCCC"
   opacity="1.000000"
   stroke="none"
   d=" M661.783630,350.209900   C658.758118,346.801331 655.723145,343.401093 652.709045,339.982452   C646.652893,333.113281 640.608154,326.234070 634.276245,318.834167   C633.936707,317.598663 633.879517,316.888000 633.891541,316.108337   C633.960754,316.039276 634.099548,315.901459 634.099548,315.901459   C637.340210,318.713226 640.920593,321.221863 643.754395,324.396759   C650.701172,332.179779 657.303650,340.270172 663.754883,348.637878   C662.904541,349.429230 662.344116,349.819580 661.783630,350.209900  z"
   id="path24" />
<path
   fill="#EAEAEA"
   opacity="1.000000"
   stroke="none"
   d=" M596.002441,294.997314   C589.680664,292.835358 583.372620,290.631683 577.029053,288.535736   C575.011902,287.869293 572.900024,287.489624 570.366333,286.630829   C568.931030,285.860260 567.961060,285.437561 566.991028,285.014893   C565.930664,285.006531 564.870239,284.998169 563.408813,284.573273   C563.024719,283.053589 563.041748,281.950470 563.058716,280.847321   C563.799072,280.889587 564.539368,280.931824 565.678101,281.344116   C566.738892,281.759521 567.401306,281.804840 568.063721,281.850189   C568.806335,281.891357 569.549011,281.932556 570.787354,282.255646   C571.533325,282.760254 571.823975,282.896942 572.155151,282.947601   C572.875671,282.956329 573.596191,282.965057 574.800659,283.255920   C575.535889,283.760803 575.827576,283.896698 576.159729,283.945740   C576.577454,283.955261 576.995178,283.964752 577.847168,284.255676   C578.529785,284.759705 578.818726,284.897430 579.148132,284.950287   C579.568298,284.958313 579.988403,284.966370 580.844177,285.255310   C581.527710,285.759155 581.816162,285.897614 582.145203,285.951538   C582.565979,285.959229 582.986755,285.966949 583.843750,286.255493   C584.528137,286.759491 584.816895,286.897766 585.146362,286.951111   C585.566895,286.958954 585.987366,286.966797 586.843872,287.255341   C587.527649,287.758972 587.816101,287.897491 588.145081,287.951599   C588.565979,287.959534 588.986938,287.967499 589.846069,288.256470   C590.535278,288.759705 590.826355,288.896118 591.157654,288.946716   C592.212524,289.288971 593.267334,289.631226 594.658569,290.359833   C594.996094,291.159241 594.997192,291.572266 595.022095,292.305969   C595.364685,293.416870 595.683533,294.207092 596.002441,294.997314  z"
   id="path26" />
<path
   fill="#D7D7D7"
   opacity="1.000000"
   stroke="none"
   d=" M596.240601,295.015656   C595.683533,294.207092 595.364685,293.416870 595.422058,292.318878   C596.597412,291.988007 597.396545,291.964874 598.195679,291.941711   C599.592102,292.567535 600.988586,293.193359 602.826965,294.180054   C603.580383,294.672363 603.891846,294.803772 604.203308,294.935181   C604.203308,294.935181 604.625916,294.940063 604.947266,295.240479   C605.580688,295.672119 605.892883,295.803375 606.205017,295.934601   C606.205017,295.934601 606.626587,295.938721 606.947205,296.239899   C607.581238,296.671783 607.894714,296.802490 608.208130,296.933167   C608.208130,296.933167 608.627930,296.937286 608.947388,297.239380   C609.581421,297.671631 609.895935,297.801819 610.210449,297.931976   C610.210449,297.931976 610.629211,297.937012 610.948059,298.239746   C611.582092,298.671936 611.897278,298.801392 612.212463,298.930878   C612.641418,299.254120 613.070374,299.577362 613.883423,300.220886   C614.581299,300.671692 614.895203,300.802216 615.209045,300.932739   C615.638428,301.259033 616.067871,301.585358 616.884888,302.227844   C617.584290,302.673798 617.896179,302.803558 618.208008,302.933319   C618.208008,302.933319 618.627808,302.936859 618.947266,303.239624   C619.582336,303.671753 619.897888,303.801117 620.213440,303.930481   C620.642090,304.253540 621.070740,304.576599 621.883179,305.221039   C622.582458,305.671783 622.897949,305.801117 623.213440,305.930450   C623.776917,306.374634 624.340454,306.818817 625.057678,307.841858   C625.534729,308.981384 625.858032,309.542053 626.030945,310.183167   C626.234009,310.177429 626.587524,310.091156 627.175781,310.011353   C627.410645,310.017853 627.879578,309.987885 627.879578,309.987885   C627.955139,310.306335 628.097290,310.591644 628.263306,311.491821   C628.100769,312.486206 627.980774,312.832642 627.860779,313.179077   C622.768250,310.144287 617.690125,307.084961 612.576599,304.085876   C610.308044,302.755371 607.968262,301.546509 605.293579,299.805847   C604.271790,298.900452 603.617249,298.471619 602.962646,298.042755   C602.962646,298.042755 602.484009,298.022003 602.094360,297.705505   C600.121948,296.610199 598.539062,295.831421 596.956238,295.052673   C596.956238,295.052673 596.478821,295.033997 596.240601,295.015656  z"
   id="path28" />
<path
   fill="#F4F4F4"
   opacity="1.000000"
   stroke="none"
   d=" M573.770874,598.740723   C574.578247,599.858948 575.157410,600.720398 575.903564,601.863708   C572.703979,602.768372 569.337463,603.391113 565.322693,604.102417   C564.371826,604.326111 564.152527,604.544800 564.016602,604.847046   C562.004883,604.902161 559.993225,604.957214 557.550537,605.027100   C556.474792,604.465820 555.830017,603.889771 555.185181,603.313660   C556.191650,602.580872 557.109497,601.417603 558.219727,601.189148   C563.297913,600.144043 568.429993,599.360962 573.770874,598.740723  z"
   id="path30" />
<path
   fill="#F4F4F4"
   opacity="1.000000"
   stroke="none"
   d=" M562.867798,280.500305   C563.041748,281.950470 563.024719,283.053589 563.011169,284.569885   C557.412292,283.836182 551.791077,282.768066 546.234497,281.431000   C545.622192,281.283661 545.380432,279.596039 545.442383,278.417908   C546.295166,278.223572 546.672302,278.234192 547.626770,278.535950   C548.510010,278.870941 548.815918,278.914734 549.121826,278.958496   C551.138794,278.969940 553.155701,278.981415 555.728638,279.268921   C556.525024,279.759735 556.803345,279.898407 557.119568,279.960999   C558.971985,280.025085 560.824463,280.089172 562.867798,280.500305  z"
   id="path32" />
<path
   fill="#E7E7E7"
   opacity="1.000000"
   stroke="none"
   d=" M413.537292,732.953369   C414.424408,733.599243 414.949402,734.258972 415.813599,734.978394   C413.728302,736.704895 411.303864,738.371582 408.289825,740.122314   C407.370331,740.318359 407.145020,740.537720 407.024231,740.864502   C406.283966,740.924744 405.543671,740.984924 404.432434,741.087158   C404.336517,739.777039 404.155273,737.750244 404.971466,737.198364   C407.502289,735.486755 410.412292,734.335754 413.537292,732.953369  z"
   id="path34" />
<path
   fill="#F2F2F2"
   opacity="1.000000"
   stroke="none"
   d=" M691.426880,461.960693   C691.003723,449.382141 690.961609,436.569580 690.983154,423.278900   C691.371704,423.483093 691.979980,424.165649 691.979248,424.847595   C691.965881,437.140656 691.879028,449.433624 691.426880,461.960693  z"
   id="path36" />
<path
   fill="#CCCCCC"
   opacity="1.000000"
   stroke="none"
   d=" M671.887085,360.665588   C667.374512,363.134003 672.469055,365.247986 671.922791,367.752838   C670.334167,365.646179 668.740356,363.164612 667.490479,360.324829   C668.572388,359.257843 669.310303,358.549042 670.048279,357.840240   C670.657104,358.672943 671.265869,359.505646 671.887085,360.665588  z"
   id="path38" />
<path
   fill="#CCCCCC"
   opacity="1.000000"
   stroke="none"
   d=" M666.953308,359.078125   C665.955994,357.645538 664.958679,356.212982 664.346680,354.399933   C665.527222,353.996826 666.322388,353.974182 667.117615,353.951538   C667.757263,354.737793 668.396973,355.524078 668.754761,356.682953   C667.966370,357.729736 667.459839,358.403931 666.953308,359.078125  z"
   id="path40" />
<path
   fill="#C0C0C0"
   opacity="1.000000"
   stroke="none"
   d=" M653.510193,553.919922   C652.319946,553.785950 651.418823,553.504883 650.183716,553.085571   C651.334839,551.288513 652.819885,549.629639 654.642212,548.129883   C655.358093,548.877136 655.736755,549.465393 656.115479,550.053589   C655.343384,551.293396 654.571350,552.533142 653.510193,553.919922  z"
   id="path42" />
<path
   fill="#C0C0C0"
   opacity="1.000000"
   stroke="none"
   d=" M667.080566,353.615540   C666.322388,353.974182 665.527222,353.996826 664.333374,354.040375   C663.934814,354.061279 663.970947,354.049438 663.946289,353.735962   C663.332520,352.937439 662.743286,352.452332 662.154114,351.967255   C662.069092,351.576569 661.984131,351.185913 661.841370,350.502563   C662.344116,349.819580 662.904541,349.429230 663.814392,348.993896   C664.503906,348.951996 664.762451,349.098724 665.062317,349.844482   C665.315186,350.611664 665.534363,350.836548 665.842834,350.974426   C666.243042,351.742828 666.643250,352.511200 667.080566,353.615540  z"
   id="path44" />
<path
   fill="#CCCCCC"
   opacity="1.000000"
   stroke="none"
   d=" M628.027161,313.460968   C627.980774,312.832642 628.100769,312.486206 628.452332,311.640839   C629.718384,311.848389 630.752808,312.554901 632.041809,313.831909   C632.833862,314.599609 633.371338,314.796753 633.908875,314.993927   C633.908875,314.993927 634.029785,315.442322 634.064697,315.671875   C634.099548,315.901459 633.960754,316.039276 633.549255,316.054016   C632.673462,316.109009 632.209106,316.149292 631.744812,316.189575   C630.561035,315.373993 629.377319,314.558441 628.027161,313.460968  z"
   id="path46" />
<path
   fill="#D0D0D0"
   opacity="1.000000"
   stroke="none"
   d=" M656.403442,549.937744   C655.736755,549.465393 655.358093,548.877136 654.912842,547.916748   C655.021912,547.072998 655.197632,546.601379 655.798462,546.252319   C657.104553,546.587402 657.985352,546.799927 658.866211,547.012512   C658.141296,547.948975 657.416443,548.885437 656.403442,549.937744  z"
   id="path48" />
<path
   fill="#C0C0C0"
   opacity="1.000000"
   stroke="none"
   d=" M666.979858,359.303619   C667.459839,358.403931 667.966370,357.729736 668.814819,357.003601   C669.499390,356.950226 669.760010,357.095764 669.993408,357.614197   C669.310303,358.549042 668.572388,359.257843 667.482788,359.966187   C667.131165,359.965698 667.006348,359.529114 666.979858,359.303619  z"
   id="path50" />
<path
   fill="#D0D0D0"
   opacity="1.000000"
   stroke="none"
   d=" M657.849365,543.203613   C658.926392,543.052124 659.997925,543.020996 661.468445,543.001221   C661.140076,543.950439 660.412842,544.888428 659.105591,545.728027   C658.325134,544.936768 658.124756,544.243958 657.924316,543.551086   C657.924316,543.551086 657.843872,543.323975 657.849365,543.203613  z"
   id="path52" />
<path
   fill="#F2F2F2"
   opacity="1.000000"
   stroke="none"
   d=" M690.407837,469.979767   C690.137939,468.001251 690.232422,465.815002 690.599487,463.343079   C690.838806,465.295624 690.805481,467.533844 690.407837,469.979767  z"
   id="path54" />
<path
   fill="#F2F2F2"
   opacity="1.000000"
   stroke="none"
   d=" M690.932373,421.531677   C690.561157,419.850861 690.244202,417.748413 689.987244,415.222748   C690.360352,416.903046 690.673523,419.006531 690.932373,421.531677  z"
   id="path56" />
<path
   fill="#C0C0C0"
   opacity="1.000000"
   stroke="none"
   d=" M657.671753,543.744019   C658.124756,544.243958 658.325134,544.936768 658.816406,545.843262   C659.107178,546.056824 659.009216,546.540344 658.937744,546.776428   C657.985352,546.799927 657.104553,546.587402 656.007935,546.093872   C656.334473,545.187561 656.876831,544.562256 657.671753,543.744019  z"
   id="path58" />
<path
   fill="#F2F2F2"
   opacity="1.000000"
   stroke="none"
   d=" M689.944153,413.559448   C689.569214,412.499878 689.250244,411.042572 688.989258,409.191833   C689.364929,410.252838 689.682495,411.707275 689.944153,413.559448  z"
   id="path60" />
<path
   fill="#F4F4F4"
   opacity="1.000000"
   stroke="none"
   d=" M578.317261,601.942505   C578.593384,601.468872 579.178345,601.060242 579.916748,600.898193   C579.588806,601.432312 579.107422,601.719971 578.317261,601.942505  z"
   id="path62" />
<path
   fill="#F4F4F4"
   opacity="1.000000"
   stroke="none"
   d=" M567.943176,281.559357   C567.401306,281.804840 566.738892,281.759521 566.041626,281.420929   C566.612000,281.174622 567.217346,281.221588 567.943176,281.559357  z"
   id="path64" />
<path
   fill="#F4F4F4"
   opacity="1.000000"
   stroke="none"
   d=" M598.046875,291.646362   C597.396545,291.964874 596.597412,291.988007 595.398315,291.998230   C594.997192,291.572266 594.996094,291.159241 595.000610,290.436218   C595.970093,290.534515 596.934082,290.942780 598.046875,291.646362  z"
   id="path66" />
<path
   fill="#EAEAEA"
   opacity="1.000000"
   stroke="none"
   d=" M627.877686,309.652588   C627.879578,309.987885 627.410645,310.017853 626.986694,310.038696   C626.562744,310.059540 626.181335,310.102692 626.181335,310.102692   C625.858032,309.542053 625.534729,308.981384 625.134033,308.106628   C625.996399,308.300751 626.936035,308.809021 627.877686,309.652588  z"
   id="path68" />
<path
   fill="#F2F2F2"
   opacity="1.000000"
   stroke="none"
   d=" M688.950134,407.578400   C688.574585,406.821564 688.254272,405.683380 687.990967,404.170258   C688.367126,404.929199 688.686279,406.063141 688.950134,407.578400  z"
   id="path70" />
<path
   fill="#F2F2F2"
   opacity="1.000000"
   stroke="none"
   d=" M687.955750,402.604126   C687.583313,402.152863 687.264587,401.343719 686.991699,400.185944   C687.361572,400.640289 687.685547,401.443237 687.955750,402.604126  z"
   id="path72" />
<path
   fill="#E7E7E7"
   opacity="1.000000"
   stroke="none"
   d=" M426.916077,558.688110   C426.838043,559.010681 426.465881,559.014160 426.280762,559.023560   C426.196503,558.479187 426.297363,557.925354 426.636688,557.209839   C426.914795,557.487244 426.954437,557.926453 426.916077,558.688110  z"
   id="path74" />
<path
   fill="#D7D7D7"
   opacity="1.000000"
   stroke="none"
   d=" M633.911377,314.661560   C633.371338,314.796753 632.833862,314.599609 632.164551,314.136353   C632.659790,314.023224 633.286865,314.176208 633.911377,314.661560  z"
   id="path76" />
<path
   fill="#CCCCCC"
   opacity="1.000000"
   stroke="none"
   d=" M676.998169,370.652527   C676.631470,370.454132 676.335205,369.921143 676.065857,369.064545   C676.418091,369.266571 676.743347,369.792236 676.998169,370.652527  z"
   id="path78" />
<path
   fill="#EAEAEA"
   opacity="1.000000"
   stroke="none"
   d=" M606.092041,295.680511   C605.892883,295.803375 605.580688,295.672119 605.144409,295.316406   C605.339905,295.203400 605.659424,295.314911 606.092041,295.680511  z"
   id="path80" />
<path
   fill="#EAEAEA"
   opacity="1.000000"
   stroke="none"
   d=" M604.090759,294.681183   C603.891846,294.803772 603.580383,294.672363 603.144775,294.316956   C603.339844,294.204407 603.658997,294.315796 604.090759,294.681183  z"
   id="path82" />
<path
   fill="#F4F4F4"
   opacity="1.000000"
   stroke="none"
   d=" M591.060181,288.690491   C590.826355,288.896118 590.535278,288.759705 590.152588,288.332550   C590.334717,288.229828 590.648743,288.332062 591.060181,288.690491  z"
   id="path84" />
<path
   fill="#F4F4F4"
   opacity="1.000000"
   stroke="none"
   d=" M588.053894,287.692810   C587.816101,287.897491 587.527649,287.758972 587.150085,287.331116   C587.334473,287.228821 587.648621,287.331451 588.053894,287.692810  z"
   id="path86" />
<path
   fill="#F4F4F4"
   opacity="1.000000"
   stroke="none"
   d=" M585.054565,286.692505   C584.816895,286.897766 584.528137,286.759491 584.150208,286.331238   C584.334534,286.228790 584.648621,286.331360 585.054565,286.692505  z"
   id="path88" />
<path
   fill="#F4F4F4"
   opacity="1.000000"
   stroke="none"
   d=" M651.306885,557.097412   C651.183472,556.897217 651.306946,556.575378 651.666016,556.142212   C651.785583,556.345825 651.669678,556.660828 651.306885,557.097412  z"
   id="path90" />
<path
   fill="#FFFFFF"
   opacity="1.000000"
   stroke="none"
   d=" M407.294373,740.894531   C407.145020,740.537720 407.370331,740.318359 407.928894,740.124390   C407.959869,740.336426 407.762177,740.630554 407.294373,740.894531  z"
   id="path92" />
<path
   fill="#EAEAEA"
   opacity="1.000000"
   stroke="none"
   d=" M608.094177,296.679077   C607.894714,296.802490 607.581238,296.671783 607.143921,296.315491   C607.340088,296.201630 607.660156,296.313324 608.094177,296.679077  z"
   id="path94" />
<path
   fill="#F4F4F4"
   opacity="1.000000"
   stroke="none"
   d=" M594.290039,596.911133   C594.140442,596.552551 594.364441,596.324951 594.921875,596.120728   C594.958496,596.345459 594.761292,596.644775 594.290039,596.911133  z"
   id="path96" />
<path
   fill="#FFFFFF"
   opacity="1.000000"
   stroke="none"
   d=" M549.006836,278.668396   C548.815918,278.914734 548.510010,278.870941 547.775879,278.643311   C547.862427,278.432465 548.377075,278.405396 549.006836,278.668396  z"
   id="path98" />
<path
   fill="#FFFFFF"
   opacity="1.000000"
   stroke="none"
   d=" M557.034546,279.704254   C556.803345,279.898407 556.525024,279.759735 556.154297,279.348999   C556.332581,279.251190 556.641052,279.349365 557.034546,279.704254  z"
   id="path100" />
<path
   fill="#FFFFFF"
   opacity="1.000000"
   stroke="none"
   d=" M564.285767,604.887939   C564.152527,604.544800 564.371826,604.326111 564.898071,604.113647   C564.932800,604.333740 564.743896,604.631287 564.285767,604.887939  z"
   id="path102" />
<path
   fill="#F4F4F4"
   opacity="1.000000"
   stroke="none"
   d=" M582.289917,600.910522   C582.140320,600.552307 582.363953,600.324768 582.920532,600.120361   C582.957336,600.345032 582.760559,600.644348 582.289917,600.910522  z"
   id="path104" />
<path
   fill="#F4F4F4"
   opacity="1.000000"
   stroke="none"
   d=" M586.290161,599.908997   C586.144348,599.549500 586.371582,599.322815 586.933960,599.123413   C586.967834,599.348206 586.765869,599.645264 586.290161,599.908997  z"
   id="path106" />
<path
   fill="#F4F4F4"
   opacity="1.000000"
   stroke="none"
   d=" M589.290161,598.909424   C589.144104,598.549683 589.371460,598.322815 589.934326,598.123535   C589.968323,598.348450 589.766174,598.645447 589.290161,598.909424  z"
   id="path108" />
<path
   fill="#F4F4F4"
   opacity="1.000000"
   stroke="none"
   d=" M572.058960,282.690857   C571.823975,282.896942 571.533325,282.760254 571.151917,282.332428   C571.334717,282.229584 571.648743,282.331848 572.058960,282.690857  z"
   id="path110" />
<path
   fill="#F4F4F4"
   opacity="1.000000"
   stroke="none"
   d=" M592.290283,597.910400   C592.143738,597.549561 592.371582,597.322205 592.936523,597.124023   C592.970459,597.349609 592.767395,597.646545 592.290283,597.910400  z"
   id="path112" />
<path
   fill="#F4F4F4"
   opacity="1.000000"
   stroke="none"
   d=" M582.053955,285.692780   C581.816162,285.897614 581.527710,285.759155 581.150146,285.331268   C581.334534,285.228912 581.648621,285.331482 582.053955,285.692780  z"
   id="path114" />
<path
   fill="#F4F4F4"
   opacity="1.000000"
   stroke="none"
   d=" M597.290283,595.911011   C597.143250,595.550354 597.370789,595.322937 597.935303,595.123901   C597.969421,595.349304 597.766968,595.646545 597.290283,595.911011  z"
   id="path116" />
<path
   fill="#F4F4F4"
   opacity="1.000000"
   stroke="none"
   d=" M576.061218,283.689941   C575.827576,283.896698 575.535889,283.760803 575.152710,283.332886   C575.334717,283.229858 575.648743,283.332001 576.061218,283.689941  z"
   id="path118" />
<path
   fill="#F4F4F4"
   opacity="1.000000"
   stroke="none"
   d=" M599.290039,594.910034   C599.143188,594.551208 599.369568,594.324402 599.930298,594.123169   C599.964844,594.347290 599.764343,594.645142 599.290039,594.910034  z"
   id="path120" />
<path
   fill="#E7E7E7"
   opacity="1.000000"
   stroke="none"
   d=" M618.296631,584.943176   C618.248901,584.678101 618.482605,584.432007 618.975281,584.126709   C619.015503,584.365784 618.796753,584.663940 618.296631,584.943176  z"
   id="path122" />
<path
   fill="#F4F4F4"
   opacity="1.000000"
   stroke="none"
   d=" M579.055176,284.692444   C578.818726,284.897430 578.529785,284.759705 578.151062,284.332458   C578.334534,284.230133 578.648376,284.332367 579.055176,284.692444  z"
   id="path124" />
<path
   fill="#E7E7E7"
   opacity="1.000000"
   stroke="none"
   d=" M621.297119,582.940796   C621.249878,582.675171 621.483704,582.430542 621.975647,582.126648   C622.015198,582.365540 621.796692,582.663635 621.297119,582.940796  z"
   id="path126" />
<path
   fill="#F4F4F4"
   opacity="1.000000"
   stroke="none"
   d=" M637.301636,570.922485   C637.253967,570.664673 637.483215,570.421814 637.969604,570.117920   C638.010620,570.350464 637.794495,570.643921 637.301636,570.922485  z"
   id="path128" />
<path
   fill="#CCCCCC"
   opacity="1.000000"
   stroke="none"
   d=" M675.988770,367.704041   C675.710693,367.755280 675.452942,367.515411 675.140259,367.007385   C675.393250,366.963776 675.701172,367.188354 675.988770,367.704041  z"
   id="path130" />
<path
   fill="#CCCCCC"
   opacity="1.000000"
   stroke="none"
   d=" M674.987000,365.703552   C674.708740,365.753082 674.452148,365.511597 674.141602,365.001587   C674.394714,364.959534 674.701721,365.186035 674.987000,365.703552  z"
   id="path132" />
<path
   fill="#CCCCCC"
   opacity="1.000000"
   stroke="none"
   d=" M673.989624,363.704590   C673.709900,363.763763 673.450195,363.532318 673.131836,363.037048   C673.385376,362.986847 673.697449,363.200409 673.989624,363.704590  z"
   id="path134" />
<path
   fill="#CCCCCC"
   opacity="1.000000"
   stroke="none"
   d=" M665.877808,350.707306   C665.534363,350.836548 665.315186,350.611664 665.116333,350.069519   C665.335876,350.039520 665.624329,350.239868 665.877808,350.707306  z"
   id="path136" />
<path
   fill="#EAEAEA"
   opacity="1.000000"
   stroke="none"
   d=" M623.097229,305.677124   C622.897949,305.801117 622.582458,305.671783 622.143311,305.315186   C622.340088,305.199890 622.660522,305.311829 623.097229,305.677124  z"
   id="path138" />
<path
   fill="#EAEAEA"
   opacity="1.000000"
   stroke="none"
   d=" M620.097290,303.677063   C619.897888,303.801117 619.582336,303.671753 619.143188,303.315125   C619.340088,303.199768 619.660583,303.311707 620.097290,303.677063  z"
   id="path140" />
<path
   fill="#EAEAEA"
   opacity="1.000000"
   stroke="none"
   d=" M618.094604,302.678986   C617.896179,302.803558 617.584290,302.673798 617.147095,302.320923   C617.341553,302.206787 617.661377,302.315704 618.094604,302.678986  z"
   id="path142" />
<path
   fill="#EAEAEA"
   opacity="1.000000"
   stroke="none"
   d=" M615.094666,300.678741   C614.895203,300.802216 614.581299,300.671692 614.143616,300.315186   C614.339966,300.201080 614.660095,300.312897 615.094666,300.678741  z"
   id="path144" />
<path
   fill="#EAEAEA"
   opacity="1.000000"
   stroke="none"
   d=" M612.096619,298.677490   C611.897278,298.801392 611.582092,298.671936 611.143311,298.315399   C611.340088,298.200256 611.660400,298.312164 612.096619,298.677490  z"
   id="path146" />
<path
   fill="#EAEAEA"
   opacity="1.000000"
   stroke="none"
   d=" M610.095703,297.678040   C609.895935,297.801819 609.581421,297.671631 609.143311,297.314880   C609.340088,297.200256 609.660461,297.312164 610.095703,297.678040  z"
   id="path148" />

<path
   fill="#BFBFBF"
   opacity="1.000000"
   stroke="none"
   d=" M438.083527,385.209991   C438.083527,385.209991 438.087799,385.616608 437.789124,385.940613   C437.358185,386.596466 437.225952,386.928253 437.093719,387.260071   C437.093719,387.260071 437.090637,387.642395 436.790771,387.953247   C436.358521,388.596100 436.226135,388.928070 436.093719,389.260071   C436.093719,389.260071 436.090637,389.642334 435.793488,389.939941   C435.351410,390.551941 435.206482,390.866272 435.061584,391.180603   C432.784424,397.897400 430.507202,404.614166 427.773804,411.928345   C427.227539,413.753967 427.137451,414.982178 427.047333,416.210358   C427.047333,416.210358 427.073212,416.645660 426.693878,417.073364   C426.223816,418.730804 426.133087,419.960571 426.042389,421.190308   C426.042389,421.190308 426.056213,421.642670 425.686127,422.130615   C425.224945,424.809326 425.133820,427.000092 425.042725,429.190887   C425.042694,429.190887 425.051666,429.648193 424.690094,430.166412   C424.508270,438.438629 424.688049,446.192657 424.867828,453.946655   C424.867828,453.946655 425.056213,454.354828 424.987915,455.002411   C425.239807,457.750549 425.559998,459.851074 425.880188,461.951630   C425.880219,461.951630 426.059662,462.360168 425.994202,462.958435   C426.252808,464.691101 426.576874,465.825500 426.900940,466.959900   C426.900940,466.959900 427.073120,467.357391 426.998413,467.961884   C427.230713,470.023590 427.537720,471.480835 427.844727,472.938049   C428.900757,475.981354 429.956757,479.024628 431.085266,482.712830   C431.415924,483.563385 431.674011,483.769043 431.932098,483.974701   C431.932098,483.974701 432.100647,484.344055 432.033691,484.875336   C432.283691,485.927124 432.600677,486.447601 432.917633,486.968109   C432.917633,486.968109 433.082367,487.358856 433.016174,487.974030   C434.655334,492.743805 436.360687,496.898438 437.736420,501.025818   C436.591156,500.673279 435.775543,500.347992 434.959930,500.022705   C434.959930,500.022736 435.004059,500.008057 434.966675,499.704407   C434.328705,498.918762 433.728088,498.436737 433.127502,497.954681   C432.084290,495.263947 431.041046,492.573212 429.951904,489.202942   C429.357727,487.990570 428.809418,487.457764 428.261078,486.924988   C427.462646,483.951233 426.664185,480.977478 425.872894,477.298431   C425.352264,476.035278 424.824493,475.477448 424.296692,474.919617   C424.142242,473.302399 423.987793,471.685181 423.863464,469.329742   C423.578491,468.057434 423.263397,467.523315 422.948334,466.989227   C422.892670,466.001709 422.837036,465.014160 422.842285,463.281433   C422.558014,461.681580 422.212830,460.826904 421.867615,459.972260   C421.597290,458.550690 421.326935,457.129150 421.319153,455.122192   C421.365875,453.353149 421.150055,452.169464 420.934265,450.985748   C420.927887,445.305969 420.921509,439.626221 421.198914,433.279297   C421.356873,431.416748 421.231110,430.221344 421.105347,429.025909   C421.358124,427.601501 421.610931,426.177063 422.175293,424.165771   C422.569397,422.618713 422.651978,421.658569 422.734558,420.698395   C422.790863,419.715118 422.847168,418.731873 423.156433,417.249084   C423.321106,416.177521 423.232788,415.605499 423.144470,415.033447   C423.159790,414.597351 423.175110,414.161224 423.550476,413.310669   C424.197357,412.171509 424.484222,411.446808 424.771057,410.722107   C424.905670,409.107727 425.040283,407.493378 425.547455,405.392700   C426.232208,404.206665 426.544434,403.506958 426.856659,402.807251   C427.267883,401.138489 427.679138,399.469727 428.463806,397.355896   C429.174744,396.206970 429.512268,395.503082 429.849792,394.799194   C431.608826,391.258057 433.367828,387.716888 435.762360,384.062225   C436.959778,384.369110 437.521637,384.789551 438.083527,385.209991  z"
   id="path152" />
<path
   fill="#D0D0D0"
   opacity="1.000000"
   stroke="none"
   d=" M467.234253,531.922546   C467.974487,532.570557 468.714722,533.218567 469.860901,534.204346   C470.588470,534.669373 470.910095,534.796570 471.231689,534.923767   C471.652100,535.247742 472.072540,535.571655 472.775696,536.353699   C474.445740,537.516724 475.833008,538.221619 477.220276,538.926575   C477.220276,538.926575 477.635071,538.931824 477.802246,539.245483   C477.969391,539.559082 477.982300,540.026001 477.940125,540.343994   C477.262482,541.110413 476.627014,541.558838 475.991547,542.007324   C475.441162,541.834290 474.890778,541.661255 474.031982,540.956787   C472.807312,539.957397 471.891022,539.489380 470.974701,539.021362   C461.036499,533.091003 451.990570,526.131714 445.468750,516.257690   C446.547180,515.188354 447.308289,514.489075 448.069366,513.789795   C453.817169,519.508057 459.564972,525.226318 465.789642,531.243652   C466.589081,531.669373 466.911652,531.795959 467.234253,531.922546  z"
   id="path154" />
<path
   fill="#C9C9C9"
   opacity="1.000000"
   stroke="none"
   d=" M438.390503,385.017883   C437.521637,384.789551 436.959778,384.369110 436.035950,383.856873   C439.410370,377.741791 443.146729,371.718567 447.305695,365.323364   C448.487946,363.970764 449.247559,362.990112 450.007141,362.009460   C451.235016,360.857483 452.462891,359.705505 454.177032,358.322754   C455.511261,358.763580 456.359192,359.435181 457.207153,360.106812   C456.414032,361.024261 455.620941,361.941742 454.260315,363.054138   C453.491730,363.569183 453.290649,363.889252 453.089600,364.209351   C453.089600,364.209351 453.071808,364.070679 452.817200,364.182831   C452.273987,364.650482 451.985382,365.005951 451.696777,365.361420   C447.363678,371.849548 443.030609,378.337646 438.390503,385.017883  z"
   id="path156" />
<path
   fill="#DFDFDF"
   opacity="1.000000"
   stroke="none"
   d=" M488.017700,339.891296   C488.017700,339.891296 487.619629,340.047546 487.162964,340.121582   C486.476715,340.427826 486.247162,340.660034 486.017639,340.892212   C482.587646,342.515015 479.157715,344.137878 475.337219,345.499268   C474.632660,344.500031 474.318665,343.762299 474.004700,343.024536   C479.430023,340.054688 484.855377,337.084839 490.849670,334.315613   C492.966675,333.700165 494.514771,332.884155 496.062866,332.068115   C496.491608,332.062408 496.920380,332.056702 497.810242,332.353638   C498.517822,333.734863 498.764282,334.813538 499.010712,335.892181   C498.606049,335.946014 498.201385,335.999817 497.247498,336.124451   C496.471375,336.427490 496.244537,336.659760 496.017700,336.892029   C495.611481,336.945892 495.205322,336.999786 494.248657,337.124481   C493.471344,337.427551 493.244476,337.659882 493.017639,337.892212   C492.608917,337.944244 492.200195,337.996307 491.241821,338.122040   C490.354034,338.317017 490.129303,338.548431 490.017975,338.890015   C490.017975,338.890015 489.617981,339.046448 489.161438,339.121613   C488.475861,339.428284 488.246796,339.659790 488.017700,339.891296  z"
   id="path158" />
<path
   fill="#E3E3E3"
   opacity="1.000000"
   stroke="none"
   d=" M476.046173,542.359497   C476.627014,541.558838 477.262482,541.110413 478.226013,540.326538   C478.742950,539.967407 478.931854,539.943604 479.120728,539.919800   C479.120728,539.919800 479.030273,539.918091 479.191833,540.165894   C479.960358,540.589478 480.567383,540.765381 481.174377,540.941223   C481.174377,540.941223 481.612000,540.958130 481.945496,541.248230   C482.540283,541.757690 482.839691,541.892273 483.177246,541.942017   C483.177246,541.942017 483.613678,541.958618 483.946289,542.248474   C484.539703,542.757019 484.838348,542.891907 485.174835,542.943054   C485.174835,542.943054 485.612732,542.960205 485.946106,543.249268   C486.539154,543.755981 486.836334,543.891357 487.170990,543.944519   C487.170990,543.944519 487.610779,543.961670 487.943237,544.249756   C488.531830,544.756104 488.825745,544.893372 489.157440,544.949768   C489.575989,544.953613 489.994537,544.957458 490.846100,545.250000   C491.539948,545.757935 491.838898,545.892517 492.175903,545.942444   C492.175903,545.942444 492.613129,545.960205 492.943298,546.248535   C493.528656,546.755310 493.821686,546.893555 494.152527,546.951599   C494.874176,546.954468 495.595795,546.957397 496.798828,547.250000   C497.541168,547.759155 497.840393,547.893188 498.177917,547.941711   C498.589203,547.947693 499.000488,547.953674 499.691986,548.382812   C499.307465,549.548767 498.642761,550.291504 497.978058,551.034180   C489.866394,550.413513 482.916931,546.737793 476.046173,542.359497  z"
   id="path160" />
<path
   fill="#F2F2F2"
   opacity="1.000000"
   stroke="none"
   d=" M499.400696,335.830200   C498.764282,334.813538 498.517822,333.734863 498.131836,332.350403   C503.792328,330.745697 509.572998,329.338165 515.418884,328.296783   C516.087402,328.177704 517.120972,330.107452 517.997620,331.464539   C517.290894,331.899658 516.571716,331.957458 515.265869,332.104736   C514.372131,332.325470 514.151855,332.544128 514.018311,332.850220   C509.275757,333.822845 504.533234,334.795532 499.400696,335.830200  z"
   id="path162" />
<path
   fill="#F2F2F2"
   opacity="1.000000"
   stroke="none"
   d=" M498.061829,551.406006   C498.642761,550.291504 499.307465,549.548767 499.990601,548.460205   C505.060394,549.072571 510.111725,550.030884 515.724731,551.267212   C516.530518,551.756409 516.810730,551.894348 517.126953,551.959106   C517.126953,551.959106 517.583069,551.997498 517.796265,552.080688   C517.186890,553.103516 516.237854,554.938049 515.561462,554.842529   C509.728302,554.018372 503.944275,552.846191 498.061829,551.406006  z"
   id="path164" />
<path
   fill="#D0D0D0"
   opacity="1.000000"
   stroke="none"
   d=" M687.670532,433.298523   C688.144714,439.136292 688.349670,445.287781 688.246826,451.727783   C687.759827,445.881592 687.580566,439.746948 687.670532,433.298523  z"
   id="path166" />
<path
   fill="#C9C9C9"
   opacity="1.000000"
   stroke="none"
   d=" M473.672424,343.074371   C474.318665,343.762299 474.632660,344.500031 474.982300,345.538391   C474.579498,346.184937 474.140991,346.530945 473.203369,347.036224   C472.387115,347.314606 472.163025,347.530365 472.031982,347.842804   C470.967346,348.844604 469.902710,349.846405 468.173218,350.907349   C466.663452,350.302673 465.818604,349.638824 464.973724,348.974976   C464.973724,348.974976 465.000000,349.000000 465.320892,348.973328   C466.762848,347.967407 467.883881,346.988220 469.004944,346.009033   C470.450012,345.047394 471.895081,344.085785 473.672424,343.074371  z"
   id="path168" />
<path
   fill="#DFDFDF"
   opacity="1.000000"
   stroke="none"
   d=" M457.508606,359.964966   C456.359192,359.435181 455.511261,358.763580 454.331665,358.045959   C455.666656,356.630707 457.333313,355.261444 459.635376,354.159729   C461.266968,354.643951 462.263184,354.860626 463.259369,355.077332   C461.442932,356.659271 459.626526,358.241211 457.508606,359.964966  z"
   id="path170" />
<path
   fill="#D0D0D0"
   opacity="1.000000"
   stroke="none"
   d=" M445.150848,510.932404   C445.735504,511.425995 446.320160,511.919556 446.732971,512.803955   C446.016296,513.823242 445.471497,514.451721 444.926697,515.080261   C442.663544,512.276001 440.400391,509.471710 438.466614,506.385437   C440.914276,507.713104 443.032562,509.322754 445.150848,510.932404  z"
   id="path172" />
<path
   fill="#BFBFBF"
   opacity="1.000000"
   stroke="none"
   d=" M445.098083,510.693542   C443.032562,509.322754 440.914276,507.713104 438.465424,506.030823   C438.134888,505.958191 438.006287,505.525574 437.996674,504.880981   C438.016052,503.397980 438.045074,502.559570 438.319000,501.893616   C439.073486,502.372284 439.583038,502.678436 440.092590,502.984589   C440.444000,502.925110 440.718536,503.043671 441.078033,503.842163   C441.570404,504.519196 441.900909,504.694275 442.231445,504.869354   C442.231445,504.869354 442.116943,504.892487 442.156799,505.104218   C442.454193,505.542053 442.711700,505.768158 442.969238,505.994263   C442.969238,505.994263 443.098267,506.353058 443.063965,506.882812   C443.657867,508.269440 444.286041,509.126343 444.914246,509.983215   C444.914246,509.983215 445.045288,510.454651 445.098083,510.693542  z"
   id="path174" />
<path
   fill="#E7E7E7"
   opacity="1.000000"
   stroke="none"
   d=" M427.046875,553.235840   C425.935852,553.960510 424.775665,554.340820 423.271393,554.853394   C423.073456,553.806213 423.219666,552.626831 423.365845,551.447449   C424.576477,551.928772 425.787140,552.410156 427.046875,553.235840  z"
   id="path176" />
<path
   fill="#DFDFDF"
   opacity="1.000000"
   stroke="none"
   d=" M464.614807,348.981476   C465.818604,349.638824 466.663452,350.302673 467.879578,351.024170   C467.416412,351.745758 466.581970,352.409668 465.189209,352.854431   C463.408478,352.413513 462.186066,352.191711 460.963684,351.969879   C462.061066,350.975891 463.158447,349.981934 464.614807,348.981476  z"
   id="path178" />
<path
   fill="#C9C9C9"
   opacity="1.000000"
   stroke="none"
   d=" M460.843018,352.224274   C462.186066,352.191711 463.408478,352.413513 464.859924,352.934906   C464.651794,353.792542 464.214539,354.350616 463.518311,354.992981   C462.263184,354.860626 461.266968,354.643951 459.999207,354.142059   C460.059204,353.397461 460.390747,352.938049 460.843018,352.224274  z"
   id="path180" />
<path
   fill="#D0D0D0"
   opacity="1.000000"
   stroke="none"
   d=" M438.074066,501.721130   C438.045074,502.559570 438.016052,503.397980 437.967407,504.657257   C436.955200,503.635010 435.962677,502.191895 434.965027,500.385742   C435.775543,500.347992 436.591156,500.673279 437.744049,501.192474   C438.081329,501.386383 438.074066,501.721130 438.074066,501.721130  z"
   id="path182" />
<path
   fill="#F2F2F2"
   opacity="1.000000"
   stroke="none"
   d=" M495.705994,332.076447   C494.514771,332.884155 492.966675,333.700165 491.207764,334.275513   C492.447693,333.384796 493.898407,332.734772 495.705994,332.076447  z"
   id="path184" />
<path
   fill="#EAEAEA"
   opacity="1.000000"
   stroke="none"
   d=" M597.026123,295.394897   C598.539062,295.831421 600.121948,296.610199 601.855347,297.690125   C600.369263,297.239899 598.732605,296.488495 597.026123,295.394897  z"
   id="path186" />
<path
   fill="#D0D0D0"
   opacity="1.000000"
   stroke="none"
   d=" M420.696289,451.213531   C421.150055,452.169464 421.365875,453.353149 421.336365,454.756714   C420.880127,453.798187 420.669220,452.619751 420.696289,451.213531  z"
   id="path188" />
<path
   fill="#DFDFDF"
   opacity="1.000000"
   stroke="none"
   d=" M468.642456,346.010040   C467.883881,346.988220 466.762848,347.967407 465.308777,348.961304   C466.077118,347.987701 467.178528,346.999390 468.642456,346.010040  z"
   id="path190" />
<path
   fill="#D0D0D0"
   opacity="1.000000"
   stroke="none"
   d=" M420.837921,429.222717   C421.231110,430.221344 421.356873,431.416748 421.213989,432.812378   C420.820343,431.814880 420.695404,430.617218 420.837921,429.222717  z"
   id="path192" />
<path
   fill="#DFDFDF"
   opacity="1.000000"
   stroke="none"
   d=" M449.666443,362.040161   C449.247559,362.990112 448.487946,363.970764 447.396332,364.996918   C447.818146,364.051910 448.571930,363.061371 449.666443,362.040161  z"
   id="path194" />
<path
   fill="#BFBFBF"
   opacity="1.000000"
   stroke="none"
   d=" M444.966553,515.298889   C445.471497,514.451721 446.016296,513.823242 446.852356,513.071655   C447.483002,512.932373 447.745697,513.066467 448.000549,513.570312   C447.308289,514.489075 446.547180,515.188354 445.466797,515.913330   C445.147461,515.939026 445.006439,515.517517 444.966553,515.298889  z"
   id="path196" />
<path
   fill="#D0D0D0"
   opacity="1.000000"
   stroke="none"
   d=" M421.650879,460.191345   C422.212830,460.826904 422.558014,461.681580 422.829987,462.910767   C422.315887,462.326996 421.875031,461.368683 421.650879,460.191345  z"
   id="path198" />
<path
   fill="#D0D0D0"
   opacity="1.000000"
   stroke="none"
   d=" M422.456360,420.836517   C422.651978,421.658569 422.569397,422.618713 422.192505,423.801178   C421.991486,423.007202 422.084839,421.990906 422.456360,420.836517  z"
   id="path200" />
<path
   fill="#F4F4F4"
   opacity="1.000000"
   stroke="none"
   d=" M585.658325,595.008423   C584.902100,595.668945 583.796570,596.328979 582.341736,596.985718   C583.097961,596.324280 584.203552,595.666138 585.658325,595.008423  z"
   id="path202" />
<path
   fill="#E3E3E3"
   opacity="1.000000"
   stroke="none"
   d=" M471.035706,539.361633   C471.891022,539.489380 472.807312,539.957397 473.856628,540.721680   C473.025330,540.579224 472.061005,540.140564 471.035706,539.361633  z"
   id="path204" />
<path
   fill="#F4F4F4"
   opacity="1.000000"
   stroke="none"
   d=" M567.135620,285.302673   C567.961060,285.437561 568.931030,285.860260 569.963135,286.623444   C569.110168,286.506104 568.195190,286.048309 567.135620,285.302673  z"
   id="path206" />
<path
   fill="#D7D7D7"
   opacity="1.000000"
   stroke="none"
   d=" M631.830444,316.492065   C632.209106,316.149292 632.673462,316.109009 633.480042,316.123047   C633.879517,316.888000 633.936707,317.598663 633.990479,318.668610   C633.296692,318.283447 632.606384,317.539001 631.830444,316.492065  z"
   id="path208" />
<path
   fill="#D0D0D0"
   opacity="1.000000"
   stroke="none"
   d=" M686.742188,421.146606   C687.132812,421.554138 687.313965,422.118744 687.276489,422.834686   C686.882751,422.425232 686.707764,421.864471 686.742188,421.146606  z"
   id="path210" />
<path
   fill="#D0D0D0"
   opacity="1.000000"
   stroke="none"
   d=" M660.646973,537.998596   C660.558289,538.599304 660.155579,539.263062 659.443726,539.984863   C659.533997,539.382446 659.933472,538.722046 660.646973,537.998596  z"
   id="path212" />
<path
   fill="#E7E7E7"
   opacity="1.000000"
   stroke="none"
   d=" M417.636597,728.021851   C417.541595,728.638794 417.124054,729.304199 416.392120,730.031738   C416.489838,729.419373 416.901947,728.744873 417.636597,728.021851  z"
   id="path214" />
<path
   fill="#D0D0D0"
   opacity="1.000000"
   stroke="none"
   d=" M422.904663,415.153198   C423.232788,415.605499 423.321106,416.177521 423.178406,416.880219   C422.853241,416.431580 422.759033,415.852264 422.904663,415.153198  z"
   id="path216" />
<path
   fill="#D0D0D0"
   opacity="1.000000"
   stroke="none"
   d=" M662.634460,534.983154   C662.548096,535.583801 662.149658,536.253540 661.440369,536.982361   C661.527161,536.378357 661.924744,535.715271 662.634460,534.983154  z"
   id="path218" />
<path
   fill="#D0D0D0"
   opacity="1.000000"
   stroke="none"
   d=" M684.887939,476.153137   C685.224060,476.599365 685.323730,477.168671 685.196167,477.872498   C684.863098,477.430054 684.757324,476.853119 684.887939,476.153137  z"
   id="path220" />
<path
   fill="#D0D0D0"
   opacity="1.000000"
   stroke="none"
   d=" M686.815063,463.147278   C687.161682,463.586060 687.284607,464.163177 687.172729,464.877197   C686.822388,464.437927 686.706848,463.861755 686.815063,463.147278  z"
   id="path222" />
<path
   fill="#D0D0D0"
   opacity="1.000000"
   stroke="none"
   d=" M664.596130,531.941284   C664.515808,532.541565 664.130005,533.229614 663.427856,533.977112   C663.504517,533.367371 663.897583,532.698181 664.596130,531.941284  z"
   id="path224" />
<path
   fill="#D0D0D0"
   opacity="1.000000"
   stroke="none"
   d=" M422.739990,467.164734   C423.263397,467.523315 423.578491,468.057434 423.842468,468.924011   C423.371429,468.617737 422.951538,467.978973 422.739990,467.164734  z"
   id="path226" />
<path
   fill="#D0D0D0"
   opacity="1.000000"
   stroke="none"
   d=" M685.871216,470.152161   C686.208313,470.596558 686.313416,471.168610 686.188599,471.874939   C685.852234,471.432739 685.745728,470.856262 685.871216,470.152161  z"
   id="path228" />
<path
   fill="#D0D0D0"
   opacity="1.000000"
   stroke="none"
   d=" M424.247223,475.233551   C424.824493,475.477448 425.352264,476.035278 425.841827,476.920776   C425.268341,476.681458 424.733032,476.114471 424.247223,475.233551  z"
   id="path230" />
<path
   fill="#D0D0D0"
   opacity="1.000000"
   stroke="none"
   d=" M668.586670,524.932556   C668.519714,525.531494 668.149170,526.223206 667.467285,526.981079   C667.531616,526.373352 667.907410,525.699280 668.586670,524.932556  z"
   id="path232" />
<path
   fill="#D0D0D0"
   opacity="1.000000"
   stroke="none"
   d=" M673.572388,514.919434   C673.522278,515.517212 673.171692,516.215149 672.515381,516.985901   C672.563721,516.379028 672.917786,515.699280 673.572388,514.919434  z"
   id="path234" />
<path
   fill="#D0D0D0"
   opacity="1.000000"
   stroke="none"
   d=" M433.142151,498.273071   C433.728088,498.436737 434.328705,498.918762 434.948486,499.719849   C434.364014,499.556458 433.760406,499.073944 433.142151,498.273071  z"
   id="path236" />
<path
   fill="#D0D0D0"
   opacity="1.000000"
   stroke="none"
   d=" M428.222565,487.241302   C428.809418,487.457764 429.357727,487.990570 429.891205,488.847290   C429.312256,488.633362 428.748169,488.095490 428.222565,487.241302  z"
   id="path238" />
<path
   fill="#D0D0D0"
   opacity="1.000000"
   stroke="none"
   d=" M685.711060,413.163147   C686.231445,413.527802 686.551270,414.075256 686.810181,414.962524   C686.336304,414.650208 685.923340,413.998077 685.711060,413.163147  z"
   id="path240" />
<path
   fill="#CCCCCC"
   opacity="1.000000"
   stroke="none"
   d=" M662.151733,352.284485   C662.743286,352.452332 663.332520,352.937439 663.936646,353.741364   C663.350830,353.574066 662.750122,353.087891 662.151733,352.284485  z"
   id="path242" />
<path
   fill="#EAEAEA"
   opacity="1.000000"
   stroke="none"
   d=" M603.016968,298.359070   C603.617249,298.471619 604.271790,298.900452 604.977356,299.648102   C604.375977,299.536407 603.723633,299.105896 603.016968,298.359070  z"
   id="path244" />
<path
   fill="#D0D0D0"
   opacity="1.000000"
   stroke="none"
   d=" M672.175171,370.261566   C672.764343,370.467773 673.334045,370.991791 673.892090,371.844055   C673.305542,371.641327 672.730591,371.110352 672.175171,370.261566  z"
   id="path246" />
<path
   fill="#D0D0D0"
   opacity="1.000000"
   stroke="none"
   d=" M429.551392,394.905090   C429.512268,395.503082 429.174744,396.206970 428.533478,396.989319   C428.570801,396.382141 428.911896,395.696564 429.551392,394.905090  z"
   id="path248" />
<path
   fill="#D0D0D0"
   opacity="1.000000"
   stroke="none"
   d=" M426.558105,402.912537   C426.544434,403.506958 426.232208,404.206665 425.631439,404.996521   C425.648407,404.397034 425.953979,403.707428 426.558105,402.912537  z"
   id="path250" />
<path
   fill="#D0D0D0"
   opacity="1.000000"
   stroke="none"
   d=" M424.483093,410.850159   C424.484222,411.446808 424.197357,412.171509 423.614319,412.988953   C423.610474,412.380554 423.902802,411.679382 424.483093,410.850159  z"
   id="path252" />
<path
   fill="#FFFFFF"
   opacity="1.000000"
   stroke="none"
   d=" M626.030945,310.183167   C626.181335,310.102692 626.562744,310.059540 626.751831,310.032227   C626.587524,310.091156 626.234009,310.177429 626.030945,310.183167  z"
   id="path254" />
<path
   fill="#F2F2F2"
   opacity="1.000000"
   stroke="none"
   d=" M438.319000,501.893616   C438.074066,501.721130 438.081329,501.386383 438.073700,501.219727   C436.360687,496.898438 434.655334,492.743805 433.000122,488.185455   C435.361328,492.592560 437.672363,497.403381 440.038025,502.599426   C439.583038,502.678436 439.073486,502.372284 438.319000,501.893616  z"
   id="path256" />
<path
   fill="#F4F4F4"
   opacity="1.000000"
   stroke="none"
   d=" M424.920654,453.484070   C424.688049,446.192657 424.508270,438.438629 424.595398,430.374573   C424.899353,437.716858 424.936432,445.369141 424.920654,453.484070  z"
   id="path258" />
<path
   fill="#F4F4F4"
   opacity="1.000000"
   stroke="none"
   d=" M425.933746,461.530212   C425.559998,459.851074 425.239807,457.750549 424.981873,455.227081   C425.358551,456.905701 425.672943,459.007263 425.933746,461.530212  z"
   id="path260" />
<path
   fill="#F4F4F4"
   opacity="1.000000"
   stroke="none"
   d=" M425.405548,428.980682   C425.133820,427.000092 425.224945,424.809326 425.596222,422.338257   C425.840393,424.295471 425.804382,426.532990 425.405548,428.980682  z"
   id="path262" />
<path
   fill="#E3E3E3"
   opacity="1.000000"
   stroke="none"
   d=" M477.071960,538.621887   C475.833008,538.221619 474.445740,537.516724 473.033569,536.445679   C474.313690,536.825500 475.618683,537.571350 477.071960,538.621887  z"
   id="path264" />
<path
   fill="#F4F4F4"
   opacity="1.000000"
   stroke="none"
   d=" M427.906433,472.542419   C427.537720,471.480835 427.230713,470.023590 426.985596,468.178101   C427.354370,469.242126 427.661255,470.694427 427.906433,472.542419  z"
   id="path266" />
<path
   fill="#F4F4F4"
   opacity="1.000000"
   stroke="none"
   d=" M426.952393,466.578644   C426.576874,465.825500 426.252808,464.691101 425.986115,463.181396   C426.363617,463.936493 426.683746,465.066956 426.952393,466.578644  z"
   id="path268" />
<path
   fill="#D0D0D0"
   opacity="1.000000"
   stroke="none"
   d=" M444.986786,509.644440   C444.286041,509.126343 443.657867,508.269440 443.059692,507.073425   C443.746246,507.591400 444.402802,508.448547 444.986786,509.644440  z"
   id="path270" />
<path
   fill="#F4F4F4"
   opacity="1.000000"
   stroke="none"
   d=" M426.380646,421.008698   C426.133087,419.960571 426.223816,418.730804 426.607849,417.273682   C426.840393,418.306580 426.779633,419.566833 426.380646,421.008698  z"
   id="path272" />
<path
   fill="#F4F4F4"
   opacity="1.000000"
   stroke="none"
   d=" M427.381592,416.021118   C427.137451,414.982178 427.227539,413.753967 427.603088,412.288940   C427.830963,413.312042 427.773376,414.571991 427.381592,416.021118  z"
   id="path274" />
<path
   fill="#F2F2F2"
   opacity="1.000000"
   stroke="none"
   d=" M432.965942,486.638672   C432.600677,486.447601 432.283691,485.927124 432.013062,485.077271   C432.377686,485.268372 432.695953,485.788818 432.965942,486.638672  z"
   id="path276" />
<path
   fill="#F2F2F2"
   opacity="1.000000"
   stroke="none"
   d=" M481.037781,540.644653   C480.567383,540.765381 479.960358,540.589478 479.203979,540.122314   C479.670105,540.003418 480.285645,540.175781 481.037781,540.644653  z"
   id="path278" />
<path
   fill="#F2F2F2"
   opacity="1.000000"
   stroke="none"
   d=" M498.072937,547.687622   C497.840393,547.893188 497.541168,547.759155 497.151215,547.327515   C497.337494,547.221375 497.652710,547.327454 498.072937,547.687622  z"
   id="path280" />
<path
   fill="#F2F2F2"
   opacity="1.000000"
   stroke="none"
   d=" M494.059204,546.693298   C493.821686,546.893555 493.528656,546.755310 493.147797,546.326416   C493.336700,546.222290 493.651276,546.328613 494.059204,546.693298  z"
   id="path282" />
<path
   fill="#FFFFFF"
   opacity="1.000000"
   stroke="none"
   d=" M517.038330,551.704102   C516.810730,551.894348 516.530518,551.756409 516.156006,551.348328   C516.333740,551.250671 516.641785,551.349915 517.038330,551.704102  z"
   id="path284" />
<path
   fill="#F2F2F2"
   opacity="1.000000"
   stroke="none"
   d=" M492.072021,545.687744   C491.838898,545.892517 491.539948,545.757935 491.150574,545.326538   C491.337372,545.220459 491.652771,545.326782 492.072021,545.687744  z"
   id="path286" />
<path
   fill="#D0D0D0"
   opacity="1.000000"
   stroke="none"
   d=" M442.993103,505.715393   C442.711700,505.768158 442.454193,505.542053 442.170044,505.047302   C442.434631,504.997955 442.725800,505.217224 442.993103,505.715393  z"
   id="path288" />
<path
   fill="#C9C9C9"
   opacity="1.000000"
   stroke="none"
   d=" M435.340698,391.097565   C435.206482,390.866272 435.351410,390.551941 435.733704,390.121490   C435.854034,390.341766 435.736938,390.678162 435.340698,391.097565  z"
   id="path290" />
<path
   fill="#C9C9C9"
   opacity="1.000000"
   stroke="none"
   d=" M436.359314,389.140076   C436.226135,388.928070 436.358521,388.596100 436.731018,388.134827   C436.855682,388.343750 436.740295,388.681915 436.359314,389.140076  z"
   id="path292" />
<path
   fill="#C9C9C9"
   opacity="1.000000"
   stroke="none"
   d=" M437.359253,387.140137   C437.225952,386.928253 437.358185,386.596466 437.730225,386.135254   C437.854950,386.343933 437.739899,386.682037 437.359253,387.140137  z"
   id="path294" />
<path
   fill="#DFDFDF"
   opacity="1.000000"
   stroke="none"
   d=" M452.023682,365.236938   C451.985382,365.005951 452.273987,364.650482 452.886719,364.189697   C452.924133,364.427094 452.637360,364.769745 452.023682,365.236938  z"
   id="path296" />
<path
   fill="#DFDFDF"
   opacity="1.000000"
   stroke="none"
   d=" M453.349426,364.096985   C453.290649,363.889252 453.491730,363.569183 453.972168,363.160095   C454.037415,363.375641 453.823303,363.680115 453.349426,364.096985  z"
   id="path298" />
<path
   fill="#F2F2F2"
   opacity="1.000000"
   stroke="none"
   d=" M431.936676,483.697510   C431.674011,483.769043 431.415924,483.563385 431.094421,483.096863   C431.334412,483.030731 431.637848,483.225494 431.936676,483.697510  z"
   id="path300" />
<path
   fill="#DFDFDF"
   opacity="1.000000"
   stroke="none"
   d=" M472.297546,347.873444   C472.163025,347.530365 472.387115,347.314606 472.930603,347.118530   C472.958954,347.329071 472.761047,347.616577 472.297546,347.873444  z"
   id="path302" />
<path
   fill="#F2F2F2"
   opacity="1.000000"
   stroke="none"
   d=" M486.293579,340.919525   C486.247162,340.660034 486.476715,340.427826 486.949158,340.125916   C486.984558,340.353088 486.777039,340.649963 486.293579,340.919525  z"
   id="path304" />
<path
   fill="#F2F2F2"
   opacity="1.000000"
   stroke="none"
   d=" M488.293396,339.918701   C488.246796,339.659790 488.475861,339.428284 488.946747,339.125854   C488.982086,339.351990 488.775574,339.649017 488.293396,339.918701  z"
   id="path306" />
<path
   fill="#F2F2F2"
   opacity="1.000000"
   stroke="none"
   d=" M490.293152,338.917694   C490.129303,338.548431 490.354034,338.317017 490.930420,338.121887   C490.968567,338.347168 490.768463,338.646271 490.293152,338.917694  z"
   id="path308" />
<path
   fill="#D0D0D0"
   opacity="1.000000"
   stroke="none"
   d=" M442.115112,504.614136   C441.900909,504.694275 441.570404,504.519196 441.150665,504.066467   C441.373901,503.978851 441.686371,504.168884 442.115112,504.614136  z"
   id="path310" />
<path
   fill="#F2F2F2"
   opacity="1.000000"
   stroke="none"
   d=" M489.061707,544.692383   C488.825745,544.893372 488.531830,544.756104 488.149109,544.327515   C488.337006,544.223145 488.651459,544.329102 489.061707,544.692383  z"
   id="path312" />
<path
   fill="#F2F2F2"
   opacity="1.000000"
   stroke="none"
   d=" M493.293365,337.919678   C493.244476,337.659882 493.471344,337.427551 493.939087,337.123657   C493.976349,337.350403 493.772736,337.648773 493.293365,337.919678  z"
   id="path314" />
<path
   fill="#F2F2F2"
   opacity="1.000000"
   stroke="none"
   d=" M496.293396,336.919495   C496.244537,336.659760 496.471375,336.427490 496.939026,336.123596   C496.976257,336.350311 496.772675,336.648621 496.293396,336.919495  z"
   id="path316" />
<path
   fill="#FFFFFF"
   opacity="1.000000"
   stroke="none"
   d=" M514.287598,332.888977   C514.151855,332.544128 514.372131,332.325470 514.903442,332.115753   C514.937439,332.334045 514.747131,332.630859 514.287598,332.888977  z"
   id="path318" />
<path
   fill="#E3E3E3"
   opacity="1.000000"
   stroke="none"
   d=" M467.113007,531.668091   C466.911652,531.795959 466.589081,531.669373 466.142151,531.310547   C466.342438,531.190186 466.667084,531.301941 467.113007,531.668091  z"
   id="path320" />
<path
   fill="#E3E3E3"
   opacity="1.000000"
   stroke="none"
   d=" M471.111633,534.668823   C470.910095,534.796570 470.588470,534.669373 470.142426,534.310791   C470.342499,534.190979 470.667053,534.302429 471.111633,534.668823  z"
   id="path322" />
<path
   fill="#F2F2F2"
   opacity="1.000000"
   stroke="none"
   d=" M479.035339,539.664429   C478.931854,539.943604 478.742950,539.967407 478.268188,540.008606   C477.982300,540.026001 477.969391,539.559082 477.993042,539.326721   C478.327789,539.199219 478.638855,539.304138 479.035339,539.664429  z"
   id="path324" />
<path
   fill="#F2F2F2"
   opacity="1.000000"
   stroke="none"
   d=" M483.073090,541.687134   C482.839691,541.892273 482.540283,541.757690 482.150330,541.325684   C482.337433,541.219421 482.653198,541.325806 483.073090,541.687134  z"
   id="path326" />
<path
   fill="#F2F2F2"
   opacity="1.000000"
   stroke="none"
   d=" M485.071533,542.688110   C484.838348,542.891907 484.539703,542.757019 484.150421,542.326050   C484.337341,542.220276 484.652771,542.326721 485.071533,542.688110  z"
   id="path328" />
<path
   fill="#F2F2F2"
   opacity="1.000000"
   stroke="none"
   d=" M487.068909,543.689514   C486.836334,543.891357 486.539154,543.755981 486.150879,543.327148   C486.337128,543.222229 486.651978,543.328369 487.068909,543.689514  z"
   id="path330" />
</svg>